<svg width="52" height="52" viewBox="0 0 52 52" fill="none" xmlns="http://www.w3.org/2000/svg">
<path d="M40.0477 37.6373C41.2786 39.7786 38.15 41.5608 36.9127 39.5606C34.2265 35.4062 31.8673 31.0467 29.2323 26.8539C28.4245 24.8536 26.046 22.7316 27.1295 20.4749C29.9824 16.6988 32.3545 21.9366 33.4444 24.3793C36.3421 30.3928 34.4765 28.7708 40.9132 28.7259C43.7084 28.7324 43.9969 33.015 41.2081 33.3227C40.1439 33.4444 39.0989 33.4316 38.0218 33.4573C38.7591 34.8356 39.2592 36.2846 40.0477 37.6373Z" fill="white"/>
<path d="M25.7412 11.5971C26.5298 9.87899 28.4852 7.79536 30.2931 9.49429C31.5176 10.6098 30.6841 12.3537 29.8507 13.4948C26.6965 18.4057 24.1961 23.6755 21.3304 28.7466C23.8884 28.971 26.4657 28.8108 29.0045 29.2595C31.5047 29.7083 31.1714 33.4075 28.6262 33.4652C23.6769 33.6575 18.7276 33.2793 13.7718 33.5485C12.0024 33.4139 9.73929 34.3627 8.37376 32.8689C5.63623 28.2081 12.9961 28.9133 15.6823 28.7274C17.362 27.1118 18.189 24.3871 19.5482 22.3869C20.6701 20.3867 21.7664 18.3672 22.8883 16.3669C23.0871 15.7387 22.1895 15.2194 21.9651 14.6424C17.7082 9.86615 23.6769 6.15414 25.7412 11.5971Z" fill="white"/>
<path d="M16.4969 36.342C16.4392 34.1495 13.5606 33.3032 12.3297 35.2457C11.7848 36.1561 11.0923 37.0665 10.8487 38.1115C10.3679 40.1822 12.9836 41.5927 14.4453 40.0476C15.4198 39.0026 16.1699 37.7332 16.4969 36.342ZM30.2934 9.49262C28.4791 7.78727 26.5302 9.87089 25.7416 11.5954C23.6772 6.15246 17.7021 9.86447 21.9654 14.6471C22.1899 15.2241 23.081 15.7369 22.8886 16.3717C21.7667 18.3783 20.6705 20.3914 19.5485 22.3916C18.1894 24.3919 17.3623 27.1102 15.6827 28.7321C12.9964 28.9117 5.63653 28.2064 8.38048 32.8737C9.74601 34.3738 12.0091 33.4186 13.7786 33.5532C18.7343 33.284 23.6772 33.6622 28.633 33.4699C31.1781 33.4122 31.5115 29.713 29.0112 29.2643C26.4725 28.8155 23.8952 28.9694 21.3372 28.7514C24.2029 23.6803 26.7032 18.4039 29.8575 13.4995C30.6845 12.3583 31.5179 10.6145 30.2934 9.49262ZM17.2662 0.619733C25.0364 0.491513 33.0309 -0.732999 40.5831 1.79296C48.6034 4.26764 51.3985 12.9097 51.3216 20.5453C51.3793 25.9497 51.3985 31.3991 50.4305 36.7267C48.847 46.7215 43.1924 51.0938 33.2104 51.1964C22.4078 51.5619 6.3674 53.4018 2.00148 40.6951C0.20641 33.534 0.860332 25.9369 0.956502 18.6027C1.64889 7.94113 5.77762 0.85053 17.2662 0.619733ZM41.2178 33.3224C44.0066 33.0147 43.7181 28.7321 40.9229 28.7257C34.4863 28.7706 36.3518 30.3926 33.4541 24.379C32.3578 21.9365 29.9921 16.705 27.1392 20.4747C26.0557 22.725 28.4406 24.8471 29.242 26.8537C31.8769 31.0401 34.2362 35.3996 36.9224 39.5604C38.1597 41.5606 41.2883 39.7783 40.0574 37.6371C39.2688 36.2843 38.7688 34.8354 38.0316 33.4571C39.1022 33.4314 40.1536 33.4442 41.2178 33.3224Z" fill="#2EA08F"/>
<path d="M12.3335 35.2488C13.5644 33.2999 16.443 34.1526 16.5007 36.3451C16.1737 37.7363 15.4172 39.0057 14.4555 40.0571C12.9938 41.5958 10.3781 40.1917 10.859 38.121C11.0961 37.0696 11.7821 36.1592 12.3335 35.2488Z" fill="white"/>
</svg>
