<svg width="532" height="521" viewBox="0 0 532 521" fill="none" xmlns="http://www.w3.org/2000/svg">
<path d="M516.267 202.005C457.278 100.972 297.268 136.953 264.591 87.816C247.853 62.6907 229.13 33.4869 201.971 18.3222C176.083 3.79891 146.069 -1.29634 119.903 0.615891C26.4576 7.45393 -13.1546 91.0595 4.79371 182.871C28.7571 305.338 137.318 430.444 266.285 431.315C333.746 431.824 398.205 407.618 448.673 373.573L449.798 372.811C500.267 338.451 561.313 279.136 516.267 202.005Z" fill="#92E3A9"/>
<path opacity="0.7" d="M516.267 202.005C457.278 100.972 297.268 136.953 264.591 87.816C247.853 62.6907 229.13 33.4869 201.971 18.3222C176.083 3.79891 146.069 -1.29634 119.903 0.615891C26.4576 7.45393 -13.1546 91.0595 4.79371 182.871C28.7571 305.338 137.318 430.444 266.285 431.315C333.746 431.824 398.205 407.618 448.673 373.573L449.798 372.811C500.267 338.451 561.313 279.136 516.267 202.005Z" fill="white"/>
<path d="M58.347 209.352H51.7873C44.7482 209.352 37.9973 212.148 33.0198 217.125C28.0424 222.103 25.2461 228.854 25.2461 235.893V381.537C25.2461 388.576 28.0424 395.327 33.0198 400.304C37.9973 405.282 44.7482 408.078 51.7873 408.078H141.783C148.822 408.078 155.573 405.282 160.551 400.304C165.528 395.327 168.324 388.576 168.324 381.537" stroke="#263238" stroke-width="1.33506" stroke-linecap="round" stroke-linejoin="round" stroke-dasharray="5.34 5.34"/>
<path d="M160.992 71.9244V43.1563C160.992 38.8518 162.7 34.723 165.74 31.6758C168.78 28.6287 172.905 26.912 177.21 26.9023H294.243C298.554 26.9023 302.688 28.6148 305.736 31.663C308.785 34.7112 310.497 38.8455 310.497 43.1563" stroke="#263238" stroke-width="1.33506" stroke-linecap="round" stroke-linejoin="round" stroke-dasharray="5.34 5.34"/>
<path d="M266.287 520.371C394.302 520.371 498.078 505.871 498.078 487.985C498.078 470.098 394.302 455.598 266.287 455.598C138.273 455.598 34.4961 470.098 34.4961 487.985C34.4961 505.871 138.273 520.371 266.287 520.371Z" fill="#92E3A9"/>
<path opacity="0.5" d="M266.287 520.371C394.302 520.371 498.078 505.871 498.078 487.985C498.078 470.098 394.302 455.598 266.287 455.598C138.273 455.598 34.4961 470.098 34.4961 487.985C34.4961 505.871 138.273 520.371 266.287 520.371Z" fill="white"/>
<path d="M484.786 110.52V328.442C484.786 335.566 481.957 342.398 476.921 347.436C471.885 352.475 465.054 355.307 457.93 355.31H74.6372C67.5134 355.307 60.6826 352.475 55.6464 347.436C50.6103 342.398 47.7812 335.566 47.7813 328.442V110.52C47.7813 109.879 47.7812 109.31 47.866 108.632C48.3378 101.853 51.3631 95.5055 56.3315 90.8695C61.2999 86.2335 67.8417 83.6543 74.6372 83.6523H457.93C464.733 83.6552 471.282 86.2411 476.251 90.8872C481.221 95.5333 484.241 101.893 484.701 108.681C484.762 109.262 484.786 109.891 484.786 110.52Z" fill="white" stroke="#263238" stroke-width="1.33506" stroke-linecap="round" stroke-linejoin="round"/>
<path d="M60.8516 118.703H473.082V320.008C473.082 326.684 470.43 333.087 465.709 337.808C460.988 342.529 454.585 345.181 447.909 345.181H86.0373C79.3608 345.181 72.9578 342.529 68.2369 337.808C63.5159 333.087 60.8637 326.684 60.8637 320.008V118.703H60.8516Z" fill="#263238"/>
<path opacity="0.2" d="M473.095 118.703V320.008C473.13 326.647 470.527 333.028 465.859 337.749C461.191 342.469 454.838 345.143 448.199 345.181H85.7472C79.1081 345.143 72.756 342.469 68.0876 337.749C63.4191 333.028 60.8165 326.647 60.8519 320.008V118.703H473.095Z" fill="white"/>
<path d="M484.703 108.679H47.8672C48.339 101.9 51.3643 95.5524 56.3327 90.9164C61.3012 86.2804 67.843 83.7012 74.6384 83.6992H457.931C464.727 83.7012 471.269 86.2804 476.237 90.9164C481.206 95.5524 484.231 101.9 484.703 108.679Z" fill="#92E3A9" stroke="#263238" stroke-width="1.33506" stroke-miterlimit="10"/>
<path d="M101.54 96.1431C101.54 97.0838 101.261 98.0034 100.738 98.7856C100.216 99.5678 99.473 100.177 98.6039 100.537C97.7348 100.897 96.7784 100.992 95.8558 100.808C94.9332 100.625 94.0856 100.172 93.4205 99.5063C92.7553 98.8412 92.3023 97.9937 92.1187 97.071C91.9352 96.1484 92.0294 95.192 92.3894 94.3229C92.7494 93.4538 93.359 92.7109 94.1412 92.1883C94.9234 91.6657 95.843 91.3867 96.7837 91.3867C98.0452 91.3867 99.255 91.8878 100.147 92.7798C101.039 93.6718 101.54 94.8816 101.54 96.1431Z" fill="#263238"/>
<path d="M121.657 96.1431C121.657 97.0838 121.378 98.0034 120.856 98.7856C120.333 99.5678 119.59 100.177 118.721 100.537C117.852 100.897 116.896 100.992 115.973 100.808C115.05 100.625 114.203 100.172 113.538 99.5063C112.872 98.8412 112.419 97.9937 112.236 97.071C112.052 96.1484 112.147 95.192 112.507 94.3229C112.867 93.4538 113.476 92.7109 114.258 92.1883C115.041 91.6657 115.96 91.3867 116.901 91.3867C118.162 91.3867 119.372 91.8878 120.264 92.7798C121.156 93.6718 121.657 94.8816 121.657 96.1431Z" fill="#263238"/>
<path d="M137.014 100.899C139.641 100.899 141.771 98.77 141.771 96.1431C141.771 93.5162 139.641 91.3867 137.014 91.3867C134.387 91.3867 132.258 93.5162 132.258 96.1431C132.258 98.77 134.387 100.899 137.014 100.899Z" fill="#263238"/>
<path d="M473.081 118.703V320.008C473.081 326.684 470.429 333.087 465.708 337.808C460.987 342.529 454.584 345.181 447.907 345.181H86.0362C80.2091 345.18 74.5629 343.158 70.0605 339.459C65.5581 335.76 62.4784 330.613 61.3466 324.897V324.824C61.039 323.229 60.885 321.608 60.8867 319.983V118.703H473.081Z" stroke="#263238" stroke-width="1.33506" stroke-miterlimit="10"/>
<path d="M472.698 149.831C470.934 148.84 469.056 148.064 467.107 147.52L464.844 137.414H455.234L452.995 147.52C451.035 148.055 449.148 148.831 447.379 149.831L438.702 144.276L431.912 151.042L437.37 159.719C436.371 161.489 435.595 163.375 435.059 165.335L424.953 167.574V177.184L435.059 179.447C435.589 181.417 436.365 183.312 437.37 185.087L431.815 193.825L438.617 200.614L447.343 195.059C449.108 196.061 450.99 196.842 452.947 197.383L455.198 207.477H464.771L467.022 197.383C468.973 196.836 470.85 196.056 472.614 195.059L473.061 195.35V149.589L472.698 149.831ZM460.063 184.929C457.607 184.929 455.205 184.201 453.163 182.836C451.121 181.471 449.529 179.531 448.59 177.261C447.65 174.991 447.405 172.494 447.885 170.085C448.365 167.676 449.549 165.463 451.287 163.727C453.025 161.991 455.238 160.809 457.648 160.332C460.058 159.854 462.555 160.102 464.823 161.043C467.092 161.985 469.031 163.578 470.394 165.622C471.757 167.666 472.483 170.068 472.48 172.524C472.48 174.154 472.159 175.768 471.535 177.274C470.911 178.78 469.996 180.148 468.843 181.3C467.69 182.452 466.321 183.366 464.814 183.989C463.308 184.611 461.693 184.931 460.063 184.929Z" fill="#263238"/>
<path d="M299.506 159.574V139.314L278.205 134.582C277.055 130.466 275.431 126.498 273.364 122.758L275.942 118.703H175.368L177.849 122.649C175.757 126.372 174.131 130.34 173.008 134.461L151.695 139.205V159.513L173.008 164.27C174.131 168.422 175.757 172.421 177.849 176.179L166.146 194.587L180.488 208.917L198.884 197.201C202.616 199.301 206.585 200.946 210.708 202.103L215.452 223.343H235.664L240.432 202.055C244.542 200.892 248.499 199.247 252.22 197.153L270.629 208.868L284.958 194.539L273.328 176.131C275.389 172.396 277.014 168.437 278.169 164.33L299.506 159.574ZM225.679 175.622C220.502 175.622 215.44 174.087 211.135 171.21C206.83 168.334 203.475 164.245 201.494 159.462C199.512 154.679 198.994 149.415 200.004 144.337C201.014 139.259 203.507 134.594 207.168 130.933C210.83 127.272 215.494 124.779 220.572 123.769C225.65 122.759 230.914 123.277 235.697 125.259C240.481 127.24 244.569 130.595 247.446 134.9C250.322 139.205 251.857 144.266 251.857 149.444C251.859 152.882 251.183 156.287 249.868 159.464C248.553 162.641 246.625 165.527 244.194 167.958C241.762 170.39 238.876 172.318 235.699 173.633C232.522 174.948 229.117 175.624 225.679 175.622Z" fill="#263238"/>
<path d="M165.08 298.696L165.939 282.611L149.274 277.915C148.5 274.61 147.355 271.402 145.861 268.354L155.931 254.218L145.135 242.249L130.055 250.721C127.172 248.907 124.09 247.433 120.869 246.327L117.988 229.238L101.916 228.5L97.2686 245.214C93.9573 245.956 90.7473 247.094 87.7075 248.603L73.5836 238.545L61.5898 249.329L70.1343 264.421C68.3025 267.291 66.8234 270.371 65.729 273.595L60.8879 274.394V296.178L64.4219 297.171C65.155 300.487 66.2889 303.702 67.7985 306.744L60.8516 316.487L61.3115 324.826V324.898L68.4884 332.85L83.5926 324.317C86.47 326.168 89.563 327.659 92.8027 328.759L95.6348 345.17L95.7679 345.86L111.84 346.707L112.264 345.17L116.488 330.005C119.814 329.261 123.04 328.123 126.097 326.617L140.197 336.662L152.179 325.891L143.707 310.786C145.522 307.92 146.981 304.844 148.052 301.625L165.08 298.696ZM122.394 273.583C119.641 270.52 116.041 268.343 112.051 267.327C108.06 266.311 103.858 266.501 99.9753 267.874C96.0928 269.246 92.7046 271.739 90.2394 275.038C87.7742 278.336 86.3426 282.292 86.1258 286.404C85.909 290.516 86.9167 294.601 89.0215 298.14C91.1263 301.679 94.2335 304.515 97.9501 306.288C101.667 308.061 105.826 308.692 109.901 308.101C113.976 307.51 117.785 305.724 120.845 302.968C124.93 299.277 127.387 294.118 127.677 288.619C127.968 283.121 126.068 277.732 122.394 273.631V273.583Z" fill="#263238"/>
<path d="M293.636 274.721C294.257 272.231 294.586 269.676 294.616 267.109L306.174 261.057L302.979 249.33L289.932 249.935C288.611 247.743 287.039 245.712 285.248 243.884L289.109 231.406L278.58 225.354L269.769 234.964C267.283 234.364 264.738 234.039 262.181 233.996L256.129 222.438L244.414 225.621L245.031 238.679C242.839 240 240.808 241.572 238.98 243.363L226.49 239.502L220.438 250.02L230.12 258.818C229.494 261.299 229.173 263.848 229.164 266.407L217.582 272.458L220.777 284.173L233.848 283.556C235.144 285.759 236.709 287.792 238.508 289.608L234.623 302.025L245.164 308.076L253.926 298.539C256.416 299.166 258.972 299.487 261.539 299.495L267.59 311.066L279.306 307.883L278.785 296.724L278.701 294.812C280.924 293.503 282.98 291.931 284.825 290.128L297.303 294.001L302.458 284.996L303.33 283.472L293.636 274.721ZM265.957 281.838C262.952 282.666 259.769 282.584 256.812 281.601C253.855 280.618 251.256 278.779 249.345 276.317C247.434 273.855 246.297 270.881 246.079 267.772C245.86 264.664 246.57 261.56 248.118 258.855C249.666 256.15 251.983 253.966 254.774 252.58C257.565 251.193 260.705 250.667 263.796 251.067C266.887 251.468 269.789 252.777 272.134 254.829C274.48 256.882 276.163 259.584 276.97 262.594C278.046 266.606 277.492 270.881 275.429 274.486C273.366 278.091 269.961 280.733 265.957 281.838Z" fill="#263238"/>
<path d="M427.635 295.34L430.297 279.243L414.007 272.696C413.637 269.265 412.853 265.892 411.671 262.651L423.399 249.592L413.91 236.279L397.741 243.141C395.057 240.989 392.123 239.169 389.003 237.719L388.059 220.182L371.962 217.52L365.366 233.737C361.951 234.138 358.592 234.93 355.357 236.097L342.262 224.37L329.01 233.858L335.884 250.015C333.992 252.377 332.349 254.928 330.982 257.628C330.801 258.003 330.607 258.378 330.438 258.753L312.913 259.722L310.238 275.794L312.877 276.859L326.529 282.366C326.901 285.78 327.685 289.137 328.864 292.363L317.113 305.506L326.613 318.819L342.77 311.921C345.446 314.092 348.376 315.929 351.496 317.391L352.404 334.843L368.489 337.506L375.073 321.409C378.496 321.035 381.861 320.247 385.094 319.061L398.165 330.789L411.478 321.288L404.603 305.119C406.793 302.432 408.643 299.485 410.11 296.345L427.635 295.34ZM382.491 294.614C379.105 297.043 375.074 298.414 370.909 298.553C366.744 298.692 362.631 297.592 359.09 295.393C355.55 293.194 352.741 289.994 351.019 286.199C349.298 282.403 348.74 278.182 349.417 274.07C350.095 269.958 351.976 266.138 354.824 263.096C357.672 260.053 361.358 257.923 365.417 256.975C369.475 256.027 373.724 256.304 377.625 257.771C381.526 259.238 384.904 261.829 387.333 265.216C390.586 269.76 391.9 275.41 390.988 280.923C390.076 286.436 387.011 291.361 382.467 294.614H382.491Z" fill="#263238"/>
<path d="M209.499 176.176H82.9292C74.1662 176.176 67.0625 183.28 67.0625 192.042V367.278C67.0625 376.041 74.1662 383.144 82.9292 383.144H209.499C218.262 383.144 225.366 376.041 225.366 367.278V192.042C225.366 183.28 218.262 176.176 209.499 176.176Z" fill="#92E3A9" stroke="#263238" stroke-width="1.33506" stroke-miterlimit="10"/>
<path opacity="0.2" d="M209.499 176.176H82.9292C74.1662 176.176 67.0625 183.28 67.0625 192.042V367.278C67.0625 376.041 74.1662 383.144 82.9292 383.144H209.499C218.262 383.144 225.366 376.041 225.366 367.278V192.042C225.366 183.28 218.262 176.176 209.499 176.176Z" fill="black"/>
<path d="M240.096 207.679V382.914C240.098 384.999 239.688 387.064 238.892 388.99C238.095 390.916 236.927 392.667 235.453 394.142C233.98 395.616 232.23 396.786 230.304 397.584C228.378 398.382 226.314 398.793 224.229 398.793H97.6592C95.5756 398.792 93.5127 398.38 91.5883 397.581C89.6638 396.782 87.9156 395.612 86.4434 394.137C84.9711 392.663 83.8037 390.913 83.0078 388.987C82.2119 387.062 81.8031 384.998 81.8047 382.914V207.679C81.8047 203.473 83.4747 199.439 86.4477 196.464C89.4206 193.489 93.4532 191.816 97.6592 191.812H224.229C228.438 191.813 232.473 193.484 235.449 196.46C238.424 199.435 240.096 203.471 240.096 207.679Z" fill="white" stroke="#263238" stroke-width="1.33506" stroke-linecap="round" stroke-linejoin="round"/>
<path d="M240.096 207.679V217.059H81.8047V207.679C81.8047 203.473 83.4747 199.439 86.4476 196.464C89.4206 193.489 93.4532 191.816 97.6592 191.812H224.229C228.438 191.813 232.473 193.484 235.449 196.46C238.424 199.435 240.096 203.471 240.096 207.679Z" fill="#92E3A9" stroke="#263238" stroke-width="1.33506" stroke-miterlimit="10"/>
<path d="M135.634 227.926H96.6875V234.461H135.634V227.926Z" fill="#92E3A9"/>
<path d="M135.634 286.488H96.6875V293.024H135.634V286.488Z" fill="#92E3A9"/>
<path d="M135.634 339.598H96.6875V346.133H135.634V339.598Z" fill="#92E3A9"/>
<path d="M207.294 244.105H96.6875V248.898H207.294V244.105Z" fill="#263238"/>
<path d="M187.349 253.27H96.6875V257.941H187.349V253.27Z" fill="#263238"/>
<path d="M199.222 262.285H96.6875V266.957H199.222V262.285Z" fill="#263238"/>
<path d="M199.222 271.289H96.6875V275.961H199.222V271.289Z" fill="#263238"/>
<path d="M207.294 297.215H96.6875V302.008H207.294V297.215Z" fill="#263238"/>
<path d="M187.349 306.375H96.6875V311.047H187.349V306.375Z" fill="#263238"/>
<path d="M199.222 315.387H96.6875V320.058H199.222V315.387Z" fill="#263238"/>
<path d="M207.294 355.523H96.6875V360.316H207.294V355.523Z" fill="#263238"/>
<path d="M187.349 364.699H96.6875V369.371H187.349V364.699Z" fill="#263238"/>
<path d="M199.222 373.715H96.6875V378.387H199.222V373.715Z" fill="#263238"/>
<path d="M418.501 70.2997V141.125C418.501 143.61 418.011 146.071 417.06 148.367C416.109 150.663 414.714 152.748 412.956 154.505C411.198 156.262 409.112 157.655 406.815 158.605C404.519 159.555 402.058 160.043 399.572 160.041H236.452C233.967 160.043 231.506 159.555 229.209 158.605C226.913 157.655 224.826 156.262 223.068 154.505C221.31 152.748 219.916 150.663 218.965 148.367C218.013 146.071 217.523 143.61 217.523 141.125V70.2997C217.527 65.2805 219.522 60.4678 223.071 56.9187C226.62 53.3696 231.433 51.3743 236.452 51.3711H399.572C404.593 51.3711 409.407 53.3654 412.957 56.9152C416.507 60.465 418.501 65.2796 418.501 70.2997Z" fill="white" stroke="#222221" stroke-width="1.33506" stroke-miterlimit="10"/>
<path d="M418.501 70.2997V71.9215H217.523V70.2997C217.527 65.2805 219.522 60.4678 223.071 56.9187C226.62 53.3696 231.433 51.3743 236.452 51.3711H399.572C404.593 51.3711 409.407 53.3654 412.957 56.9152C416.507 60.465 418.501 65.2796 418.501 70.2997Z" fill="#92E3A9" stroke="#263238" stroke-width="1.33506" stroke-miterlimit="10"/>
<path d="M247.055 65.0342C246.649 65.4411 246.131 65.7185 245.568 65.8311C245.004 65.9437 244.42 65.8866 243.888 65.667C243.357 65.4474 242.903 65.0751 242.584 64.5972C242.264 64.1194 242.094 63.5576 242.094 62.9828C242.094 62.408 242.264 61.8461 242.584 61.3683C242.903 60.8905 243.357 60.5182 243.888 60.2986C244.42 60.0789 245.004 60.0218 245.568 60.1345C246.131 60.2471 246.649 60.5244 247.055 60.9314C247.595 61.4774 247.898 62.2146 247.898 62.9828C247.898 63.751 247.595 64.4881 247.055 65.0342Z" fill="#263238"/>
<path d="M260.516 65.0342C260.11 65.4411 259.592 65.7185 259.029 65.8311C258.465 65.9437 257.881 65.8866 257.349 65.667C256.818 65.4474 256.364 65.0751 256.045 64.5972C255.725 64.1194 255.555 63.5576 255.555 62.9828C255.555 62.408 255.725 61.8461 256.045 61.3683C256.364 60.8905 256.818 60.5182 257.349 60.2986C257.881 60.0789 258.465 60.0218 259.029 60.1345C259.592 60.2471 260.11 60.5244 260.516 60.9314C261.056 61.4774 261.359 62.2146 261.359 62.9828C261.359 63.751 261.056 64.4881 260.516 65.0342Z" fill="#263238"/>
<path d="M273.969 65.0342C273.563 65.4411 273.045 65.7185 272.482 65.8311C271.918 65.9437 271.334 65.8866 270.803 65.667C270.271 65.4474 269.817 65.0751 269.498 64.5972C269.178 64.1194 269.008 63.5576 269.008 62.9828C269.008 62.408 269.178 61.8461 269.498 61.3683C269.817 60.8905 270.271 60.5182 270.803 60.2986C271.334 60.0789 271.918 60.0218 272.482 60.1345C273.045 60.2471 273.563 60.5244 273.969 60.9314C274.509 61.4774 274.812 62.2146 274.812 62.9828C274.812 63.751 274.509 64.4881 273.969 65.0342Z" fill="#263238"/>
<path d="M296.033 84.9414H230.34V141.727H296.033V84.9414Z" stroke="#263238" stroke-width="1.33506" stroke-linecap="round" stroke-linejoin="round" stroke-dasharray="5.34 5.34"/>
<path d="M381.781 84.9414H306.176V88.9353H381.781V84.9414Z" fill="#263238"/>
<path d="M364.172 93.2109H306.176V97.1927H364.172V93.2109Z" fill="#263238"/>
<path d="M392.529 101.441H306.176V105.472H392.529V101.441Z" fill="#263238"/>
<path d="M379.712 109.465H306.176V113.495H379.712V109.465Z" fill="#263238"/>
<path d="M423.998 246.078H387.024C382.659 246.078 379.121 249.616 379.121 253.981V275.681C379.121 280.046 382.659 283.584 387.024 283.584H423.998C428.363 283.584 431.901 280.046 431.901 275.681V253.981C431.901 249.616 428.363 246.078 423.998 246.078Z" fill="white" stroke="#263238" stroke-width="1.33506" stroke-linecap="round" stroke-linejoin="round"/>
<path d="M396.146 257.359L385.992 263.725L395.42 272.076" stroke="#263238" stroke-width="1.33506" stroke-linecap="round" stroke-linejoin="round"/>
<path d="M414.642 272.676L423.768 264.906L413.238 258.008" stroke="#263238" stroke-width="1.33506" stroke-linecap="round" stroke-linejoin="round"/>
<path d="M401.086 277.472L408.578 253.969" stroke="#263238" stroke-width="1.33506" stroke-linecap="round" stroke-linejoin="round"/>
<path d="M322.997 482.023C322.997 482.023 287.899 492.08 282.998 493.823C278.544 495.396 266.465 499.632 257.4 498.313C256.525 498.187 255.66 498.001 254.81 497.756C245.624 495.021 241.497 492.468 240.287 486.695C239.077 480.922 243.652 476.661 248.057 473.938C252.463 471.215 276.353 468.371 276.353 468.371L282.126 470.065L322.997 482.023Z" fill="#92E3A9"/>
<path d="M257.4 498.313C256.525 498.187 255.66 498.001 254.81 497.756C245.624 495.021 241.497 492.468 240.287 486.695C239.077 480.922 243.652 476.661 248.057 473.938C252.463 471.215 276.353 468.371 276.353 468.371L282.126 470.065C276.898 472.486 257.437 473.805 253.189 476.25C248.941 478.695 246.895 483.294 249.401 489.563C250.744 492.831 254.326 496.038 257.4 498.313Z" fill="white"/>
<path d="M317.718 483.449C317.718 483.449 291.358 490.275 280.901 494.644C270.445 499.013 250.511 500.925 243.383 491.921C236.254 482.916 242.56 475.146 249.664 473.416C256.769 471.685 271.134 468.962 278.977 470.063" stroke="#263238" stroke-width="1.33506" stroke-linecap="round" stroke-linejoin="round"/>
<path d="M257.921 497.838C257.921 497.838 244.511 490.48 248.965 480.168C252.257 472.568 270.145 474.214 279.004 470.062" stroke="#263238" stroke-width="1.33506" stroke-linecap="round" stroke-linejoin="round"/>
<path d="M429.903 499.947C429.54 503.578 428.269 506.979 424.638 509.121C422.218 510.549 418.781 511.397 413.855 511.348C401.546 511.191 378.406 502.392 378.406 502.392L356.742 490.411L368.01 472.583L371.096 467.742L379.06 469.533C379.06 469.533 385.656 473.273 392.288 476.25C398.92 479.228 415.029 479.881 420.705 484.444C426.381 489.007 430.52 493.969 429.903 499.947Z" fill="#92E3A9"/>
<path d="M429.897 499.947C429.534 503.578 428.263 506.979 424.633 509.121C425.678 505.552 425.465 501.732 424.027 498.302C421.607 492.867 413.728 488.075 403.368 487.276C393.008 486.477 385.081 481.636 380.93 479.47C377.686 477.787 370.848 474.108 368.004 472.583L371.09 467.742L379.054 469.533C379.054 469.533 385.65 473.273 392.282 476.25C398.914 479.228 415.023 479.881 420.699 484.444C426.375 489.007 430.514 493.969 429.897 499.947Z" fill="white"/>
<path d="M361.544 493.777C377.138 502.842 394.373 508.728 412.254 511.096C416.2 511.568 420.787 511.641 423.425 508.676C424.127 507.819 424.65 506.831 424.962 505.768C425.273 504.706 425.368 503.591 425.241 502.491C424.769 496.924 420.085 492.519 414.953 490.304C409.822 488.089 404.17 487.581 398.712 486.358C393.283 485.135 388.035 483.215 383.099 480.646C379.178 478.601 375.39 476.119 371.069 475.2C366.748 474.28 361.605 475.393 359.293 479.169" stroke="#263238" stroke-width="1.33506" stroke-linecap="round" stroke-linejoin="round"/>
<path d="M421.977 510.19C424.005 509.219 425.778 507.788 427.154 506.01C428.53 504.232 429.472 502.157 429.904 499.951C430.691 494.711 427.702 489.434 423.502 486.215C419.302 482.995 414.038 481.47 408.846 480.393C403.654 479.316 398.34 478.59 393.366 476.617C385.778 473.64 378.286 467.782 370.371 469.876" stroke="#263238" stroke-width="1.33506" stroke-linecap="round" stroke-linejoin="round"/>
<path d="M385.991 306.279L349.332 292.337L348.872 292.155C348.872 292.155 349.005 291.187 349.114 289.735C349.344 286.806 349.465 282.038 348.085 280.428C346.04 278.007 340.255 280.041 334.603 277.451C328.951 274.861 318.506 279.496 318.506 279.496C318.506 279.496 310.954 278.104 307.614 283.55C305.919 287.944 306.5 294.443 306.5 294.443L305.81 294.685C301.441 296.319 277.672 305.263 272.649 308.857C267.094 312.791 260.946 353.177 258.973 365.038C257 376.899 253.49 387.585 255.269 391.664C257.049 395.743 282.585 415.41 297.278 420.481C311.971 425.552 364.073 424.111 364.073 424.111C364.073 424.111 364.92 423.881 366.433 423.397C375.244 420.565 406.505 408.874 423.098 381.425C423.122 381.474 407.05 328.79 385.991 306.279ZM286.942 374.212C284.243 376.124 285.732 383.531 285.732 383.531L281.145 379.489L292.667 351.156L297.58 372.941C297.58 372.941 289.641 372.312 286.942 374.212ZM379.117 392.209C377.846 392.862 382.747 379.247 380.424 376.16C378.1 373.074 371.092 373.365 371.092 373.365L371.685 369.649L375.837 348.348L377.216 346.715C377.216 346.715 391.473 371.15 394.027 379.767C394.027 379.791 378.487 392.209 379.117 392.209Z" fill="#92E3A9"/>
<path d="M316.778 217.918L297.849 238.008C297.849 238.008 295.247 240.32 296.276 246.142C297.305 251.963 299.725 257.034 301.553 257.373C302.999 257.626 304.465 257.756 305.934 257.76C305.934 257.76 309.988 266.547 312.869 269.996C312.869 269.996 313.861 283.563 313.329 287.327C313.329 287.327 320.13 293.269 326.533 294.02C332.935 294.77 342.823 284.967 342.823 284.967L345.243 272.961C345.243 272.961 351.053 264.15 351.44 261.802C351.827 259.455 354.49 260.06 355.797 258.898C357.104 257.736 360.118 252.568 360.638 247.679C361.158 242.789 361.171 237.173 355.494 238.819C350.569 237.5 353.655 227.092 353.655 227.092L345.001 219.467L316.778 217.918Z" fill="white"/>
<path opacity="0.5" d="M349.337 292.334C349.051 293.082 348.724 293.814 348.357 294.525C345.234 300.407 331.631 311.626 331.631 311.626L327.516 298.979L325.265 311.626C320.726 309.641 306.881 297.647 306.881 297.647C306.881 297.647 306.409 296.522 305.84 294.767L306.53 294.525C306.53 294.525 305.949 287.977 307.643 283.632C310.959 278.186 318.536 279.578 318.536 279.578C318.536 279.578 328.98 274.943 334.632 277.533C340.284 280.123 346.069 278.114 348.115 280.51C350.16 282.906 348.901 292.201 348.901 292.201L349.337 292.334Z" fill="white"/>
<path opacity="0.2" d="M385.991 306.279L349.332 292.336L348.872 292.155C348.872 292.155 349.005 291.187 349.114 289.734L348.352 294.491L342.93 301.849C348.726 303.983 354.384 306.473 359.873 309.304C362.501 310.712 364.645 312.877 366.027 315.519C367.408 318.161 367.963 321.157 367.619 324.118L360.866 381.909L358.094 414.719L366.457 423.397C375.268 420.565 406.529 408.874 423.122 381.425C423.122 381.473 407.05 328.79 385.991 306.279ZM379.117 392.208C377.846 392.862 382.748 379.246 380.424 376.16C378.1 373.074 371.093 373.364 371.093 373.364L371.686 369.649L375.837 348.348L377.217 346.714C377.217 346.714 391.474 371.149 394.027 379.767C394.027 379.791 378.487 392.208 379.117 392.208Z" fill="black"/>
<path opacity="0.2" d="M300.015 376.163L294.315 357.113C294.315 357.113 284.088 322.245 277.08 313.652L278.92 338.172C278.92 338.172 272.868 367.461 267.338 376.163C261.807 384.865 260.572 387.055 267.338 387.055C274.103 387.055 290.575 400.175 290.575 400.175L289.304 389.282L300.015 376.163ZM285.649 383.533L281.062 379.491L292.584 351.159L297.498 372.944C297.498 372.944 289.607 372.351 286.908 374.251C284.209 376.151 285.649 383.533 285.649 383.533Z" fill="black"/>
<path d="M312.867 269.996C312.867 269.996 313.908 280.271 312.867 284.967" stroke="#263238" stroke-width="1.33506" stroke-linecap="round" stroke-linejoin="round"/>
<path d="M343.875 283.589C343.886 280.285 344.268 276.992 345.013 273.773" stroke="#263238" stroke-width="1.33506" stroke-linecap="round" stroke-linejoin="round"/>
<path d="M346.62 225.578C346.62 225.578 352.841 233.384 352.514 239.291C352.188 245.197 351.728 252.192 351.885 259.042C352.043 265.892 340.884 280.246 335.147 281.517C329.41 282.788 324.472 283.114 320.805 279.447C317.138 275.78 313.471 270.685 308.703 264.149C303.934 257.614 305.072 243.272 305.072 243.272" stroke="#263238" stroke-width="1.33506" stroke-linecap="round" stroke-linejoin="round"/>
<path d="M331.636 248.73C331.257 250.875 331.095 253.052 331.152 255.23C331.027 257.065 331.597 258.879 332.749 260.313C333.439 261.015 334.432 261.584 334.565 262.552C334.562 262.988 334.441 263.414 334.215 263.787C333.989 264.16 333.667 264.465 333.282 264.67C332.506 265.061 331.758 265.506 331.043 266.001" stroke="#263238" stroke-width="1.33506" stroke-linecap="round" stroke-linejoin="round"/>
<path d="M321.797 266.754C321.797 266.754 322.511 271.389 328.72 272.357" stroke="#263238" stroke-width="1.33506" stroke-linecap="round" stroke-linejoin="round"/>
<path d="M322.438 252.26C322.438 253.604 321.857 254.681 321.143 254.681C320.429 254.681 319.848 253.604 319.848 252.26C319.848 250.917 320.429 249.84 321.143 249.84C321.857 249.84 322.438 250.929 322.438 252.26Z" fill="#263238"/>
<path d="M340.973 252.842C340.973 254.186 340.392 255.263 339.678 255.263C338.964 255.263 338.383 254.174 338.383 252.842C338.383 251.511 338.964 250.422 339.678 250.422C340.392 250.422 340.973 251.499 340.973 252.842Z" fill="#263238"/>
<path d="M337.227 246.973C337.227 246.973 343.278 240.922 348.349 247.675" stroke="#263238" stroke-width="2.67011" stroke-linecap="round" stroke-linejoin="round"/>
<path d="M324.488 247.099C324.488 247.099 320.664 242.815 314.637 247.099" stroke="#263238" stroke-width="2.67011" stroke-linecap="round" stroke-linejoin="round"/>
<path d="M313.327 275.707C313.327 275.707 317.018 285.873 325.26 288.766C333.502 291.658 344.443 276.663 344.443 276.663L343.874 274.715C343.874 274.715 336.697 284.034 328.722 282.448C320.746 280.863 312.867 270.043 312.867 270.043L313.327 275.707Z" fill="#263238"/>
<path d="M305.933 257.37C305.933 257.37 301.019 259.101 299.712 255.277C298.405 251.452 293.927 241.371 297.848 238.006C301.769 234.641 304.916 242.448 304.916 242.448" stroke="#263238" stroke-width="1.33506" stroke-linecap="round" stroke-linejoin="round"/>
<path d="M351.871 259.455C351.871 259.455 356.434 260.374 357.741 256.55C359.048 252.726 363.526 242.644 359.605 239.279C355.683 235.915 352.537 243.721 352.537 243.721" stroke="#263238" stroke-width="1.33506" stroke-linecap="round" stroke-linejoin="round"/>
<path d="M304.915 252.265C306.622 251.996 308.163 251.087 309.224 249.723C309.872 248.526 310.283 247.215 310.434 245.862C310.883 243.289 311.11 240.681 311.112 238.068C311.058 237.048 311.152 236.024 311.39 235.03C311.753 234.03 312.313 233.113 313.036 232.332C314.743 230.323 316.812 228.628 318.446 226.546C319.322 225.564 319.988 224.414 320.404 223.165C320.82 221.916 320.978 220.596 320.867 219.285C324.611 222.372 328.986 224.601 333.684 225.816C338.383 227.031 343.29 227.202 348.061 226.317C356.715 224.622 365.005 217.034 364.001 207.497C363.811 205.898 363.125 204.398 362.04 203.209C360.955 202.019 359.524 201.2 357.949 200.864C353.677 199.799 349.84 202.075 345.968 203.539C338.912 206.202 332.001 201.627 324.873 200.864C318.821 200.199 311.281 200.961 308.11 207.025C308.11 207.025 297.218 208.308 292.377 217.312C287.536 226.317 296.697 238.77 296.697 238.77C296.697 238.77 300.328 234.316 305.085 243.321L304.915 252.265Z" fill="#263238"/>
<path d="M347.373 223.276C347.373 223.276 344.541 238.041 351.935 245.194C351.935 245.194 353.557 240.752 355.191 239.663C356.369 237.043 356.868 234.168 356.642 231.304C356.415 228.44 355.471 225.679 353.896 223.276C348.426 214.683 347.373 223.276 347.373 223.276Z" fill="#263238"/>
<path opacity="0.2" d="M360.854 206.48C360.205 208.495 359.104 210.335 357.636 211.86C356.168 213.385 354.371 214.554 352.383 215.279C342.119 219.467 332.159 214.831 321.872 213.924C313.484 213.173 304.226 220.75 303.633 229.367" stroke="white" stroke-width="1.33506" stroke-linecap="round" stroke-linejoin="round"/>
<path opacity="0.2" d="M297.305 227.092C297.43 223.692 298.521 220.397 300.45 217.594C302.379 214.791 305.066 212.594 308.197 211.262" stroke="white" stroke-width="1.33506" stroke-linecap="round" stroke-linejoin="round"/>
<path d="M310.496 283.589C315.009 288.293 320.455 292.003 326.484 294.482C326.484 294.482 338.768 290.911 345.013 282.379" stroke="#263238" stroke-width="1.33506" stroke-linecap="round" stroke-linejoin="round"/>
<path d="M323.046 262.121C328.502 259.618 330.896 253.167 328.394 247.711C325.891 242.255 319.44 239.861 313.984 242.363C308.528 244.866 306.134 251.317 308.637 256.773C311.139 262.229 317.591 264.623 323.046 262.121Z" stroke="#263238" stroke-width="1.33506" stroke-linecap="round" stroke-linejoin="round"/>
<path d="M344.108 263.078C350.066 262.347 354.302 256.924 353.571 250.966C352.839 245.009 347.417 240.772 341.459 241.504C335.501 242.235 331.265 247.658 331.996 253.615C332.728 259.573 338.151 263.81 344.108 263.078Z" stroke="#263238" stroke-width="1.33506" stroke-linecap="round" stroke-linejoin="round"/>
<path d="M312.87 279.535C311.769 279.824 310.737 280.332 309.837 281.029C308.937 281.725 308.186 282.596 307.63 283.59C305.705 286.978 306.867 297.641 306.867 297.641C306.867 297.641 316.804 307.468 325.263 311.619L327.756 297.592L331.629 311.619C331.629 311.619 344.724 302.361 348.355 294.53C348.355 294.53 349.566 285.393 348.355 282.428C348.08 281.604 347.557 280.886 346.856 280.372C346.156 279.859 345.314 279.575 344.446 279.559" stroke="#263238" stroke-width="1.33506" stroke-linecap="round" stroke-linejoin="round"/>
<path d="M297.303 373.373C297.303 373.373 293.418 347.352 288.25 336.738" stroke="#263238" stroke-width="1.33506" stroke-linecap="round" stroke-linejoin="round"/>
<path d="M277.078 313.652C280.087 317.929 282.773 322.423 285.114 327.098" stroke="#263238" stroke-width="1.33506" stroke-linecap="round" stroke-linejoin="round"/>
<path d="M379.113 333.075C380.157 328.724 381.586 324.475 383.386 320.379" stroke="#263238" stroke-width="1.33506" stroke-linecap="round" stroke-linejoin="round"/>
<path d="M371.094 373.376C371.094 373.376 373.889 355.536 377.23 340.844" stroke="#263238" stroke-width="1.33506" stroke-linecap="round" stroke-linejoin="round"/>
<path d="M375.84 348.321C378.542 344.738 382.342 342.137 386.66 340.914" stroke="#263238" stroke-width="1.33506" stroke-linecap="round" stroke-linejoin="round"/>
<path d="M348.887 292.156C348.887 292.156 371.434 301.173 385.994 306.292C385.994 306.292 403.906 323.127 423.113 381.474C423.113 381.474 405.515 411.078 372.039 420.566" stroke="#263238" stroke-width="1.33506" stroke-linecap="round" stroke-linejoin="round"/>
<path d="M377.848 393.26L394.029 379.79C394.029 379.79 402.586 373.291 411.481 377.732" stroke="#263238" stroke-width="1.33506" stroke-linecap="round" stroke-linejoin="round"/>
<path d="M377.227 346.719C377.227 346.719 390.6 366.482 394.025 379.795" stroke="#263238" stroke-width="1.33506" stroke-linecap="round" stroke-linejoin="round"/>
<path d="M285.829 384.281L281.096 379.79C281.096 379.79 274.077 378.58 266.113 383.893" stroke="#263238" stroke-width="1.33506" stroke-linecap="round" stroke-linejoin="round"/>
<path d="M281.098 379.788C281.098 379.788 286.98 360.424 292.777 350.512" stroke="#263238" stroke-width="1.33506" stroke-linecap="round" stroke-linejoin="round"/>
<path d="M306.526 294.531C306.526 294.531 274.079 306.707 270.896 310.265C267.713 313.823 255.622 381.901 255.295 389.695C255.017 396.666 280.287 412.315 292.814 418.911" stroke="#263238" stroke-width="1.33506" stroke-linecap="round" stroke-linejoin="round"/>
<path d="M330.792 317.533C330.792 317.957 330.667 318.371 330.431 318.723C330.196 319.075 329.861 319.35 329.47 319.512C329.078 319.674 328.648 319.717 328.232 319.634C327.817 319.551 327.435 319.347 327.135 319.048C326.836 318.748 326.632 318.366 326.549 317.951C326.466 317.535 326.509 317.104 326.671 316.713C326.833 316.322 327.108 315.987 327.46 315.752C327.812 315.516 328.226 315.391 328.65 315.391C328.932 315.389 329.211 315.443 329.472 315.55C329.732 315.658 329.969 315.815 330.168 316.014C330.368 316.214 330.525 316.451 330.632 316.711C330.739 316.972 330.794 317.251 330.792 317.533Z" fill="#263238"/>
<path d="M368.331 431.571H294.504C294.045 431.571 293.605 431.388 293.28 431.064C292.956 430.739 292.773 430.299 292.773 429.84C292.773 429.381 292.956 428.941 293.28 428.616C293.605 428.292 294.045 428.109 294.504 428.109H368.331C368.79 428.109 369.23 428.292 369.554 428.616C369.879 428.941 370.061 429.381 370.061 429.84C370.061 430.299 369.879 430.739 369.554 431.064C369.23 431.388 368.79 431.571 368.331 431.571Z" fill="#263238"/>
<path d="M370.925 425.785L380.813 379.31C380.966 378.59 380.956 377.844 380.784 377.128C380.612 376.411 380.282 375.743 379.818 375.17C379.353 374.598 378.767 374.137 378.102 373.821C377.436 373.505 376.708 373.342 375.972 373.344H289.679C288.949 373.344 288.227 373.506 287.567 373.819C286.907 374.131 286.324 374.586 285.861 375.151C285.398 375.716 285.066 376.377 284.889 377.086C284.712 377.794 284.695 378.534 284.838 379.25L293.709 424.175C293.927 425.279 294.514 426.275 295.375 426.999C296.235 427.723 297.317 428.131 298.442 428.157L365.963 429.706C367.117 429.732 368.244 429.354 369.149 428.638C370.055 427.923 370.683 426.914 370.925 425.785Z" fill="white" stroke="#263238" stroke-width="1.33506" stroke-linecap="round" stroke-linejoin="round"/>
<path d="M339.433 400.16C339.431 401.522 339.025 402.852 338.267 403.983C337.508 405.114 336.432 405.995 335.174 406.514C333.915 407.033 332.531 407.168 331.196 406.901C329.861 406.634 328.635 405.977 327.673 405.013C326.711 404.05 326.056 402.823 325.792 401.487C325.527 400.152 325.664 398.768 326.186 397.51C326.707 396.252 327.59 395.178 328.722 394.421C329.854 393.665 331.185 393.262 332.547 393.262C333.452 393.262 334.348 393.44 335.185 393.787C336.021 394.134 336.781 394.642 337.42 395.283C338.06 395.924 338.567 396.684 338.912 397.521C339.258 398.358 339.435 399.255 339.433 400.16Z" fill="#263238"/>
<path d="M352.977 377.781H363.228" stroke="#263238" stroke-width="1.33506" stroke-linecap="round" stroke-linejoin="round"/>
<path d="M304.023 377.781H342.934" stroke="#263238" stroke-width="1.33506" stroke-linecap="round" stroke-linejoin="round"/>
<path d="M371.094 475.125L363.228 495.772C363.228 495.772 343.161 490.713 317.467 485.449C290.587 479.942 262.521 472.814 247.961 447.265C246.194 444.154 245.008 440.475 245.843 436.99C247.937 428.167 259.423 425.77 266.987 424.887C271.742 424.372 276.521 424.106 281.304 424.088C283.725 424.088 291.773 422.769 293.722 424.209C296.649 426.345 299.774 428.197 303.053 429.74C307.349 431.567 370.066 428.106 370.066 428.106C371.157 425.727 371.825 423.175 372.038 420.566C381.902 415.556 404.716 411.32 414.398 413.196C429.563 416.137 438.41 424.984 436.727 434.254C435.045 443.525 401.545 468.384 371.094 475.125Z" fill="#263238"/>
<path d="M371.096 475.125C371.096 475.125 352.01 470.066 336.422 459.537C320.833 449.007 308.658 436.784 286.934 439.313" stroke="white" stroke-width="1.33506" stroke-linecap="round" stroke-linejoin="round"/>
<path d="M332.852 457.055C342.703 454.223 349.929 447.845 357.832 441.733C366.167 435.043 375.119 429.159 384.566 424.16" stroke="white" stroke-width="1.33506" stroke-linecap="round" stroke-linejoin="round"/>
<path d="M329.379 253.98H332.271" stroke="#263238" stroke-width="1.33506" stroke-linecap="round" stroke-linejoin="round"/>
</svg>
