<svg width="23" height="30" viewBox="0 0 23 30" fill="none" xmlns="http://www.w3.org/2000/svg">
<path d="M11.5347 0.398438C5.40363 0.398438 0.433594 5.32465 0.433594 11.4016C0.433594 14.0048 1.59088 16.2939 2.87166 18.2786L10.7798 29.3533C10.9532 29.5963 11.2349 29.7402 11.5347 29.7402C11.8344 29.7402 12.1161 29.5963 12.2895 29.3533L20.1976 18.2786C21.4215 16.6455 22.6357 14.0048 22.6357 11.4016C22.6357 5.32465 17.6657 0.398438 11.5347 0.398438ZM11.5347 17.8201C7.95826 17.8201 5.05903 14.9465 5.05903 11.4016C5.05903 7.85675 7.95826 4.98309 11.5347 4.98309C15.111 4.98309 18.0103 7.85675 18.0103 11.4016C18.0103 14.9465 15.111 17.8201 11.5347 17.8201Z" fill="white"/>
<path d="M11.5349 5.89844C8.46962 5.89844 5.98438 8.36177 5.98438 11.4C5.98438 14.4383 8.46962 16.9016 11.5349 16.9016C14.6002 16.9016 17.0854 14.4383 17.0854 11.4C17.0854 8.36177 14.6002 5.89844 11.5349 5.89844ZM11.5349 15.9847C8.98027 15.9847 6.90946 13.9317 6.90946 11.4C6.90946 8.86838 8.98027 6.81537 11.5349 6.81537C14.0895 6.81537 16.1603 8.86838 16.1603 11.4C16.1603 13.9317 14.0895 15.9847 11.5349 15.9847Z" fill="white"/>
</svg>
